<?xml version="1.0" encoding="UTF-8"?>
<svg id="Layer_1" data-name="Layer 1" xmlns="http://www.w3.org/2000/svg" viewBox="0 0 500 500">
  <defs>
    <style>
      .cls-1 {
        fill: #bff466;
      }

      .cls-1, .cls-2 {
        stroke-width: 0px;
      }

      .cls-2 {
        fill: #124734;
      }
    </style>
  </defs>
  <path class="cls-2" d="m25.53,250.26c-.01-30.19-.18-60.38.02-90.57C26.09,80.82,91.48,15.4,170.52,14.92c52.75-.32,105.51-.32,158.26,0,79.62.49,144.63,65.84,145.09,145.65.16,28.41,3.05,24.82-24.86,25.08-6.94.06-13.89-.25-20.82.06-7.72.35-10.69-3.41-10.54-10.66.11-5.2,0-10.41-.04-15.61-.38-49.87-38.61-88.16-88.62-88.35-52.75-.2-105.51-.19-158.26,0-50.49.18-88.74,38.57-88.87,89.15-.15,59.34-.13,118.67-.01,178.01.1,51.35,38.67,90.3,89.95,90.97,19.49.25,18.74-1.87,18.69,18.56-.02,9.37-.15,18.74,0,28.11.11,6.63-3,9.23-9.47,9.39-88.85,2.2-154.02-66.18-155.39-143.4-.54-30.53-.09-61.07-.1-91.61Z"/>
  <path class="cls-1" d="m474.45,294.37c-1.13,25.85,2.47,55.68-6.27,85.06-17.99,60.47-77,105.38-139.92,105.52-7.33.02-9.82-2.55-9.58-9.73.41-12.13.51-24.3-.03-36.42-.35-7.8,2.5-9.93,10.14-10.24,39.47-1.61,67.44-20.52,83.2-57,3.91-9.05,5.67-18.58,5.77-28.36.2-19.43.13-38.86.19-58.3.01-3.88.53-7.77-5.53-7.48-19.03.91-38.17-1.78-57.11,1.97-42.23,8.36-71.89,43.95-72.18,87.12-.23,35.39-.31,70.79.13,106.18.12,9.19-2.82,12.36-11.95,11.83-11.42-.65-22.91-.45-34.35-.05-7.36.25-10.7-1.92-10.62-9.95.34-35.74-.54-71.5.39-107.22,2.15-82.72,66.78-145.38,149.7-145.88,28.81-.17,57.62.28,86.42-.23,9.32-.16,12.02,3.12,11.77,12.08-.55,19.07-.17,38.17-.17,61.09Z"/>
</svg>