<?xml version="1.0" encoding="utf-8"?>
<!-- Generator: Adobe Illustrator 28.0.0, SVG Export Plug-In . SVG Version: 6.00 Build 0)  -->
<svg version="1.1" id="Layer_1" xmlns="http://www.w3.org/2000/svg" xmlns:xlink="http://www.w3.org/1999/xlink" x="0px" y="0px"
	 viewBox="0 0 2134 630" style="enable-background:new 0 0 2134 630;" xml:space="preserve">
<style type="text/css">
	.st0{fill:#BFF466;}
	.st1{fill:#124734;}
</style>
<path class="st0" d="M58.6,315.2c0-21.8-0.1-43.7,0-65.5c0.4-57.1,47.7-104.4,104.9-104.7c38.2-0.2,76.3-0.2,114.5,0
	c57.6,0.4,104.6,47.6,105,105.4c0.1,20.6,2.2,17.9-18,18.1c-5,0-10-0.2-15.1,0c-5.6,0.2-7.7-2.5-7.6-7.7c0.1-3.8,0-7.5,0-11.3
	c-0.3-36.1-27.9-63.8-64.1-63.9c-38.2-0.1-76.3-0.1-114.5,0c-36.5,0.1-64.2,27.9-64.3,64.5c-0.1,42.9-0.1,85.9,0,128.8
	c0.1,37.1,28,65.3,65.1,65.8c14.1,0.2,13.6-1.4,13.5,13.4c0,6.8-0.1,13.6,0,20.3c0.1,4.8-2.2,6.7-6.9,6.8
	c-64.3,1.6-111.4-47.9-112.4-103.7C58.3,359.4,58.6,337.3,58.6,315.2L58.6,315.2z"/>
<path class="st1" d="M383.4,347.1c-0.8,18.7,1.8,40.3-4.5,61.5c-13,43.7-55.7,76.2-101.2,76.3c-5.3,0-7.1-1.8-6.9-7
	c0.3-8.8,0.4-17.6,0-26.4c-0.2-5.6,1.8-7.2,7.3-7.4c28.5-1.2,48.8-14.8,60.2-41.2c2.8-6.5,4.1-13.4,4.2-20.5
	c0.1-14.1,0.1-28.1,0.1-42.2c0-2.8,0.4-5.6-4-5.4c-13.8,0.7-27.6-1.3-41.3,1.4c-30.5,6-52,31.8-52.2,63c-0.2,25.6-0.2,51.2,0.1,76.8
	c0.1,6.6-2,8.9-8.6,8.6c-8.3-0.5-16.6-0.3-24.9,0c-5.3,0.2-7.7-1.4-7.7-7.2c0.2-25.9-0.4-51.7,0.3-77.6
	c1.6-59.8,48.3-105.2,108.3-105.5c20.8-0.1,41.7,0.2,62.5-0.2c6.7-0.1,8.7,2.3,8.5,8.7C383.1,316.7,383.4,330.5,383.4,347.1
	L383.4,347.1z"/>
<g>
	<path class="st1" d="M537,420.6c-21.1-18.8-31.5-43.9-31.5-75V307c0-31.1,10.4-55.9,31.5-74.7c21.1-18.8,47.6-28.1,78.7-28.1
		c23.8,0,44.9,5.7,62.6,17.4c17.8,11.4,29.8,27.8,35.8,49.2l-27.1,10c-10.4-33.2-37.8-48.9-71.7-48.9c-23.1,0-42.2,7-57.3,21.1
		c-14.7,14.1-22.1,32.8-22.1,56.3v33.8c0,23.5,7.4,42.2,22.1,56.6c15.1,14.1,33.8,21.1,56.6,21.1c35.2,0,62.3-18.8,73-50.9
		l27.1,10.7c-13.7,43.9-50.2,68-98.5,68C584.6,448.7,558.1,439.3,537,420.6L537,420.6z"/>
	<path class="st1" d="M857.2,268.5v26.8c-19.1-1.3-34.8,3-47.2,12.7c-12.4,9.7-20.1,22.1-23.5,36.9v98.8h-28.8V270.5h25.8l2.3,34.5
		C800.6,281.2,827.4,266.8,857.2,268.5L857.2,268.5z"/>
	<path class="st1" d="M880.7,347.5c0-24.1,8.4-43.5,24.8-58.6c16.8-15.1,37.5-22.8,62.6-22.8s45.9,7.7,62.3,22.8
		c16.8,15.1,25.1,34.5,25.1,58.6v19.8c0,24.1-8.4,43.5-25.1,58.6c-16.4,14.7-37.2,22.1-62.3,22.1s-45.9-7.4-62.6-22.1
		c-16.4-15.1-24.8-34.5-24.8-58.6L880.7,347.5L880.7,347.5z M1026.7,346.5c0-16.4-5.7-29.8-16.8-40.5s-24.8-16.1-41.9-16.1
		s-31.2,5.4-42.2,16.1c-11,10.7-16.4,24.1-16.4,40.5v22.1c0,15.7,5.7,29.1,16.8,39.9c11,10.4,25.1,15.7,41.9,15.7
		s30.8-5.4,41.9-15.7c11-10.7,16.8-24.1,16.8-39.9V346.5L1026.7,346.5z"/>
	<path class="st1" d="M1242.8,287.6c15.7,14.4,23.4,34.2,23.4,59.3v19.8c0,58-45.2,81.1-82.1,81.1c-22.4,0-41.9-7.4-57.6-21.8v71.7
		h-28.8V270.5h25.8l2,24.8c16.8-19.4,37.8-29.1,63.3-29.1C1209.3,266.1,1227.4,273.2,1242.8,287.6L1242.8,287.6z M1237.4,347.9
		c0-17.8-5-31.8-15.4-42.2s-23.4-15.7-39.2-15.7c-24.1,0-45.2,14.1-56.3,34.5v71.7c11.7,16.4,30.8,28.1,53.3,28.1
		c16.1,0,29.8-5.4,40.9-15.7c11.1-10.7,16.8-24.8,16.8-42.5V347.9L1237.4,347.9z"/>
	<path class="st1" d="M1336.2,420.6c-21.1-18.8-31.5-43.9-31.5-75V307c0-31.1,10.4-55.9,31.5-74.7c21.1-18.8,47.6-28.1,78.7-28.1
		c23.8,0,44.9,5.7,62.6,17.4c17.8,11.4,29.8,27.8,35.8,49.2l-27.1,10c-10.4-33.2-37.8-48.9-71.7-48.9c-23.1,0-42.2,7-57.3,21.1
		c-14.7,14.1-22.1,32.8-22.1,56.3v33.8c0,23.5,7.4,42.2,22.1,56.6c15.1,14.1,33.8,21.1,56.6,21.1c35.2,0,62.3-18.8,73-50.9
		l27.1,10.7c-13.7,43.9-50.2,68-98.5,68C1383.8,448.7,1357.3,439.3,1336.2,420.6L1336.2,420.6z"/>
	<path class="st1" d="M1710.4,341.8v101.8H1687l-3.7-24.8c-14.4,18.8-39.2,29.1-67,29.1c-20.4,0-37.2-5-50.6-15.4
		c-13.4-10.4-20.1-23.1-20.1-38.5v-4c0-17.1,7-30.8,21.4-41.5c14.4-11,32.5-16.4,54.6-16.4s42.9,5.7,60,16.8v-8
		c0-34.5-21.1-51.9-54.9-51.9c-23.8,0-41.5,7.7-52.6,23.1l-16.8-13.7c14.4-21.4,38.5-32.2,71.7-32.2
		C1678.2,266.1,1710.4,291.9,1710.4,341.8L1710.4,341.8z M1681.6,391.8v-21.4c-14.1-11.7-32.8-17.4-55.9-17.4
		c-30.5,0-50.9,13.4-50.9,36.2v2.7c0,21.1,21.1,33.8,48.2,33.8S1673.9,411.5,1681.6,391.8L1681.6,391.8z"/>
	<path class="st1" d="M1858.1,268.5v26.8c-19.1-1.3-34.8,3-47.2,12.7c-12.4,9.7-20.1,22.1-23.4,36.9v98.8h-28.8V270.5h25.8l2.3,34.5
		C1801.5,281.2,1828.3,266.8,1858.1,268.5L1858.1,268.5z"/>
	<path class="st1" d="M1909.7,365.6v1c0,17.1,6,31.1,17.8,41.9c11.7,10.4,27.1,15.7,46.2,15.7c25.8,0,45.9-11,60.3-32.8l15.7,14.4
		c-16.1,27.8-44.6,42.2-77.7,42.2c-25.5,0-46.9-7.4-64.3-22.1c-17.4-15.1-26.1-34.5-26.1-59v-19.4c0-24.5,8.4-44.2,25.1-59
		c17.1-15.1,37.5-22.4,62-22.4s43.6,7.4,59.6,22.1c16.4,14.7,24.4,34.8,24.4,60.3v17.1L1909.7,365.6L1909.7,365.6z M1909.7,343.9
		H2026c-1-33.5-22.4-55.3-56.9-55.3S1911.1,310.4,1909.7,343.9z"/>
</g>
</svg>
