<?xml version="1.0" encoding="UTF-8"?>
<svg id="Layer_1" data-name="Layer 1" xmlns="http://www.w3.org/2000/svg" viewBox="0 0 512 512">
  <defs>
    <style>
      .cls-1 {
        fill: #1a2421;
        stroke-width: 0px;
      }
    </style>
  </defs>
  <path class="cls-1" d="m332,498.16h-180.95c-3.35,0-6.22-2.4-6.81-5.69l-32.57-180.96c-.68-3.76,1.82-7.36,5.59-8.03.4-.07.81-.11,1.22-.11h246.1c3.82,0,6.92,3.1,6.92,6.92,0,.41-.04.82-.11,1.22l-32.57,180.96c-.59,3.3-3.46,5.7-6.82,5.69Zm-175.17-13.84h169.38l30.11-167.12H126.75l30.08,167.12Z"/>
  <path class="cls-1" d="m385.99,317.2H97.06c-5.98,0-10.83-4.86-10.84-10.84v-38.45c.01-5.98,4.86-10.83,10.84-10.84h288.93c5.98,0,10.83,4.85,10.84,10.84v38.46c-.01,5.98-4.86,10.83-10.84,10.84Zm-285.93-13.84h282.94v-32.46H100.05v32.46Z"/>
  <path class="cls-1" d="m245.01,270.91h-.53c-3.81-.29-6.67-3.61-6.38-7.42,1.1-14.63,3.56-29.13,7.38-43.3,13.63-51.47,43.99-96.94,86.29-129.27,3.03-2.32,7.38-1.75,9.7,1.29,2.32,3.03,1.75,7.38-1.29,9.7-39.87,30.47-68.48,73.32-81.33,121.83-3.58,13.34-5.9,27-6.92,40.77-.27,3.62-3.3,6.41-6.93,6.4h0Z"/>
  <path class="cls-1" d="m330.33,189.49c-20.61-.8-40.71-6.68-58.51-17.11-1.35-.73-2.42-1.88-3.04-3.28-.91-2.08-22.14-50.94,4.76-94.24,23.28-37.41,74.48-57.95,152.19-61.02,1.92-.09,3.79.64,5.15,2.01,1.36,1.35,2.1,3.21,2.04,5.13-.16,5.03-4.68,123.63-65.73,158.83-11.2,6.45-23.93,9.79-36.86,9.68h0Zm-49.74-28.13c31.67,16.48,58.46,18.68,79.65,6.47,46.27-26.69,56.38-113.63,58.35-139.8-68.5,3.83-113.29,22-133.27,54.03-20.15,32.35-8.19,70.05-4.74,79.29h0Zm-28.43,67.54c-2.8,0-5.32-1.68-6.39-4.27-16.24-39.2-47.62-70.17-87.02-85.91-3.58-1.35-5.38-5.34-4.03-8.91,1.35-3.58,5.34-5.38,8.91-4.03.09.03.18.07.27.11,42.86,17.11,76.99,50.81,94.65,93.44,1.47,3.53-.2,7.58-3.73,9.05-.84.35-1.74.53-2.65.53Z"/>
  <path class="cls-1" d="m168.54,198.33c-4.4,0-8.79-.56-13.06-1.66-49.12-12.55-75.01-93.1-76.11-96.53-1.15-3.65.88-7.53,4.53-8.68.17-.05.34-.1.51-.14,53.97-12.81,93.16-8.43,116.54,12.99,27.23,24.96,21.95,63.14,21.72,64.76-.23,1.52-.96,2.92-2.08,3.98-17.46,16.81-34.92,25.27-52.05,25.27h0Zm-73.42-95.24c7.23,19.26,29.75,71.47,63.81,80.16,15.75,4.01,32.66-2.18,50.25-18.44.55-7.73.8-33.52-17.68-50.38-18.78-17.12-51.19-20.93-96.38-11.34Z"/>
</svg>