<svg xmlns="http://www.w3.org/2000/svg" version="1.1" xmlns:xlink="http://www.w3.org/1999/xlink" width="512" height="512" x="0" y="0" viewBox="0 0 24 24" style="enable-background:new 0 0 512 512" xml:space="preserve" class=""><g><linearGradient id="a" x1="12" x2="12" y1="6.25" y2="17.75" gradientUnits="userSpaceOnUse"><stop stop-opacity="1" stop-color="#aaff00" offset="0"></stop><stop stop-opacity="1" stop-color="#bbffba" offset="1"></stop></linearGradient><path fill="url(#a)" fill-rule="evenodd" d="M14.25 7a.75.75 0 0 1 .75-.75h6a.75.75 0 0 1 .75.75v6a.75.75 0 0 1-1.5 0V8.81l-5.306 5.306a2.75 2.75 0 0 1-3.889 0l-1.171-1.172a1.25 1.25 0 0 0-1.768 0L3.53 17.53a.75.75 0 0 1-1.06-1.06l4.585-4.586a2.75 2.75 0 0 1 3.89 0l1.171 1.172a1.25 1.25 0 0 0 1.768 0l5.305-5.306H15a.75.75 0 0 1-.75-.75z" clip-rule="evenodd" opacity="1" data-original="url(#a)" class=""></path></g></svg>