<?xml version="1.0" encoding="UTF-8"?>
<svg id="Layer_1" data-name="Layer 1" xmlns="http://www.w3.org/2000/svg" viewBox="0 0 2905 238">
  <defs>
    <style>
      .cls-1 {
        fill: #124734;
        stroke-width: 0px;
      }
    </style>
  </defs>
  <g>
    <g>
      <path class="cls-1" d="m403.84,57.28c-22.66,0-34.44-8.76-44.83-16.48-9.76-7.25-18.19-13.52-35.88-13.52s-26.12,6.26-35.88,13.52c-10.39,7.72-22.17,16.48-44.83,16.48s-34.44-8.76-44.83-16.48c-9.76-7.25-18.18-13.52-35.88-13.52s-26.12,6.26-35.88,13.52c-10.39,7.72-22.17,16.48-44.83,16.48s-34.44-8.76-44.83-16.48C26.42,33.55,18,27.28.3,27.28v-15c22.66,0,34.44,8.76,44.83,16.48,9.76,7.25,18.18,13.52,35.88,13.52s26.12-6.27,35.88-13.52c10.39-7.73,22.17-16.48,44.83-16.48s34.44,8.76,44.83,16.48c9.76,7.25,18.18,13.52,35.88,13.52s26.12-6.26,35.88-13.52c10.39-7.73,22.17-16.48,44.83-16.48s34.44,8.76,44.83,16.48c9.76,7.25,18.19,13.52,35.88,13.52s26.12-6.27,35.88-13.52c10.39-7.73,22.17-16.48,44.83-16.48v15c-17.7,0-26.12,6.27-35.88,13.52-10.39,7.72-22.17,16.48-44.83,16.48Z"/>
      <path class="cls-1" d="m403.84,141.5c-22.66,0-34.44-8.76-44.83-16.48-9.76-7.25-18.19-13.52-35.88-13.52s-26.12,6.26-35.88,13.52c-10.39,7.73-22.17,16.48-44.83,16.48s-34.44-8.76-44.83-16.48c-9.76-7.25-18.18-13.52-35.88-13.52s-26.12,6.26-35.88,13.52c-10.39,7.73-22.17,16.48-44.83,16.48s-34.44-8.76-44.83-16.48c-9.76-7.25-18.18-13.52-35.88-13.52v-15c22.66,0,34.44,8.76,44.83,16.48,9.76,7.25,18.18,13.52,35.88,13.52s26.12-6.27,35.88-13.52c10.39-7.73,22.17-16.48,44.83-16.48s34.44,8.76,44.83,16.48c9.76,7.25,18.18,13.52,35.88,13.52s26.12-6.26,35.88-13.52c10.39-7.73,22.17-16.48,44.83-16.48s34.44,8.76,44.83,16.48c9.76,7.25,18.19,13.52,35.88,13.52s26.12-6.27,35.88-13.52c10.39-7.73,22.17-16.48,44.83-16.48v15c-17.7,0-26.12,6.27-35.88,13.52-10.39,7.73-22.17,16.48-44.83,16.48Z"/>
      <path class="cls-1" d="m403.84,225.72c-22.66,0-34.44-8.76-44.83-16.48-9.76-7.25-18.19-13.52-35.88-13.52s-26.12,6.26-35.88,13.52c-10.39,7.73-22.17,16.48-44.83,16.48s-34.44-8.76-44.83-16.48c-9.76-7.25-18.18-13.52-35.88-13.52s-26.12,6.26-35.88,13.52c-10.39,7.73-22.17,16.48-44.83,16.48s-34.44-8.76-44.83-16.48c-9.76-7.25-18.18-13.52-35.88-13.52v-15c22.66,0,34.44,8.76,44.83,16.48,9.76,7.25,18.18,13.52,35.88,13.52s26.12-6.27,35.88-13.52c10.39-7.73,22.17-16.48,44.83-16.48s34.44,8.76,44.83,16.48c9.76,7.25,18.18,13.52,35.88,13.52s26.12-6.26,35.88-13.52c10.39-7.73,22.17-16.48,44.83-16.48s34.44,8.76,44.83,16.48c9.76,7.25,18.19,13.52,35.88,13.52s26.12-6.27,35.88-13.52c10.39-7.73,22.17-16.48,44.83-16.48v15c-17.7,0-26.12,6.27-35.88,13.52-10.39,7.73-22.17,16.48-44.83,16.48Z"/>
    </g>
    <g>
      <path class="cls-1" d="m887.7,57.42c-22.66,0-34.44-8.76-44.83-16.48-9.76-7.25-18.19-13.52-35.88-13.52s-26.12,6.26-35.88,13.52c-10.39,7.72-22.17,16.48-44.83,16.48s-34.44-8.76-44.83-16.48c-9.76-7.25-18.18-13.52-35.88-13.52s-26.12,6.26-35.88,13.52c-10.39,7.72-22.17,16.48-44.83,16.48s-34.44-8.76-44.83-16.48c-9.76-7.25-18.18-13.52-35.88-13.52v-15c22.66,0,34.44,8.76,44.83,16.48,9.76,7.25,18.18,13.52,35.88,13.52s26.12-6.27,35.88-13.52c10.39-7.73,22.17-16.48,44.83-16.48s34.44,8.76,44.83,16.48c9.76,7.25,18.18,13.52,35.88,13.52s26.12-6.26,35.88-13.52c10.39-7.73,22.17-16.48,44.83-16.48s34.44,8.76,44.83,16.48c9.76,7.25,18.19,13.52,35.88,13.52s26.12-6.27,35.88-13.52c10.39-7.73,22.17-16.48,44.83-16.48v15c-17.7,0-26.12,6.27-35.88,13.52-10.39,7.72-22.17,16.48-44.83,16.48Z"/>
      <path class="cls-1" d="m887.7,141.64c-22.66,0-34.44-8.76-44.83-16.48-9.76-7.25-18.19-13.52-35.88-13.52s-26.12,6.26-35.88,13.52c-10.39,7.73-22.17,16.48-44.83,16.48s-34.44-8.76-44.83-16.48c-9.76-7.25-18.18-13.52-35.88-13.52s-26.12,6.26-35.88,13.52c-10.39,7.73-22.17,16.48-44.83,16.48s-34.44-8.76-44.83-16.48c-9.76-7.25-18.18-13.52-35.88-13.52v-15c22.66,0,34.44,8.76,44.83,16.48,9.76,7.25,18.18,13.52,35.88,13.52s26.12-6.27,35.88-13.52c10.39-7.73,22.17-16.48,44.83-16.48s34.44,8.76,44.83,16.48c9.76,7.25,18.18,13.52,35.88,13.52s26.12-6.26,35.88-13.52c10.39-7.73,22.17-16.48,44.83-16.48s34.44,8.76,44.83,16.48c9.76,7.25,18.19,13.52,35.88,13.52s26.12-6.27,35.88-13.52c10.39-7.73,22.17-16.48,44.83-16.48v15c-17.7,0-26.12,6.27-35.88,13.52-10.39,7.73-22.17,16.48-44.83,16.48Z"/>
      <path class="cls-1" d="m887.7,225.86c-22.66,0-34.44-8.76-44.83-16.48-9.76-7.25-18.19-13.52-35.88-13.52s-26.12,6.26-35.88,13.52c-10.39,7.73-22.17,16.48-44.83,16.48s-34.44-8.76-44.83-16.48c-9.76-7.25-18.18-13.52-35.88-13.52s-26.12,6.26-35.88,13.52c-10.39,7.73-22.17,16.48-44.83,16.48s-34.44-8.76-44.83-16.48c-9.76-7.25-18.18-13.52-35.88-13.52v-15c22.66,0,34.44,8.76,44.83,16.48,9.76,7.25,18.18,13.52,35.88,13.52s26.12-6.27,35.88-13.52c10.39-7.73,22.17-16.48,44.83-16.48s34.44,8.76,44.83,16.48c9.76,7.25,18.18,13.52,35.88,13.52s26.12-6.26,35.88-13.52c10.39-7.73,22.17-16.48,44.83-16.48s34.44,8.76,44.83,16.48c9.76,7.25,18.19,13.52,35.88,13.52s26.12-6.27,35.88-13.52c10.39-7.73,22.17-16.48,44.83-16.48v15c-17.7,0-26.12,6.27-35.88,13.52-10.39,7.73-22.17,16.48-44.83,16.48Z"/>
    </g>
  </g>
  <g>
    <g>
      <path class="cls-1" d="m1371.63,57.35c-22.66,0-34.44-8.76-44.83-16.48-9.76-7.25-18.19-13.52-35.88-13.52s-26.12,6.26-35.88,13.52c-10.39,7.72-22.17,16.48-44.83,16.48s-34.44-8.76-44.83-16.48c-9.76-7.25-18.18-13.52-35.88-13.52s-26.12,6.26-35.88,13.52c-10.39,7.72-22.17,16.48-44.83,16.48s-34.44-8.76-44.83-16.48c-9.76-7.25-18.18-13.52-35.88-13.52v-15c22.66,0,34.44,8.76,44.83,16.48,9.76,7.25,18.18,13.52,35.88,13.52s26.12-6.27,35.88-13.52c10.39-7.73,22.17-16.48,44.83-16.48s34.44,8.76,44.83,16.48c9.76,7.25,18.18,13.52,35.88,13.52s26.12-6.26,35.88-13.52c10.39-7.73,22.17-16.48,44.83-16.48s34.44,8.76,44.83,16.48c9.76,7.25,18.19,13.52,35.88,13.52s26.12-6.27,35.88-13.52c10.39-7.73,22.17-16.48,44.83-16.48v15c-17.7,0-26.12,6.27-35.88,13.52-10.39,7.72-22.17,16.48-44.83,16.48Z"/>
      <path class="cls-1" d="m1371.63,141.57c-22.66,0-34.44-8.76-44.83-16.48-9.76-7.25-18.19-13.52-35.88-13.52s-26.12,6.26-35.88,13.52c-10.39,7.73-22.17,16.48-44.83,16.48s-34.44-8.76-44.83-16.48c-9.76-7.25-18.18-13.52-35.88-13.52s-26.12,6.26-35.88,13.52c-10.39,7.73-22.17,16.48-44.83,16.48s-34.44-8.76-44.83-16.48c-9.76-7.25-18.18-13.52-35.88-13.52v-15c22.66,0,34.44,8.76,44.83,16.48,9.76,7.25,18.18,13.52,35.88,13.52s26.12-6.27,35.88-13.52c10.39-7.73,22.17-16.48,44.83-16.48s34.44,8.76,44.83,16.48c9.76,7.25,18.18,13.52,35.88,13.52s26.12-6.26,35.88-13.52c10.39-7.73,22.17-16.48,44.83-16.48s34.44,8.76,44.83,16.48c9.76,7.25,18.19,13.52,35.88,13.52s26.12-6.27,35.88-13.52c10.39-7.73,22.17-16.48,44.83-16.48v15c-17.7,0-26.12,6.27-35.88,13.52-10.39,7.73-22.17,16.48-44.83,16.48Z"/>
      <path class="cls-1" d="m1371.63,225.79c-22.66,0-34.44-8.76-44.83-16.48-9.76-7.25-18.19-13.52-35.88-13.52s-26.12,6.26-35.88,13.52c-10.39,7.73-22.17,16.48-44.83,16.48s-34.44-8.76-44.83-16.48c-9.76-7.25-18.18-13.52-35.88-13.52s-26.12,6.26-35.88,13.52c-10.39,7.73-22.17,16.48-44.83,16.48s-34.44-8.76-44.83-16.48c-9.76-7.25-18.18-13.52-35.88-13.52v-15c22.66,0,34.44,8.76,44.83,16.48,9.76,7.25,18.18,13.52,35.88,13.52s26.12-6.27,35.88-13.52c10.39-7.73,22.17-16.48,44.83-16.48s34.44,8.76,44.83,16.48c9.76,7.25,18.18,13.52,35.88,13.52s26.12-6.26,35.88-13.52c10.39-7.73,22.17-16.48,44.83-16.48s34.44,8.76,44.83,16.48c9.76,7.25,18.19,13.52,35.88,13.52s26.12-6.27,35.88-13.52c10.39-7.73,22.17-16.48,44.83-16.48v15c-17.7,0-26.12,6.27-35.88,13.52-10.39,7.73-22.17,16.48-44.83,16.48Z"/>
    </g>
    <g>
      <path class="cls-1" d="m1855.49,57.5c-22.66,0-34.44-8.76-44.83-16.48-9.76-7.25-18.19-13.52-35.88-13.52s-26.12,6.26-35.88,13.52c-10.39,7.72-22.17,16.48-44.83,16.48s-34.44-8.76-44.83-16.48c-9.76-7.25-18.18-13.52-35.88-13.52s-26.12,6.26-35.88,13.52c-10.39,7.72-22.17,16.48-44.83,16.48s-34.44-8.76-44.83-16.48c-9.76-7.25-18.18-13.52-35.88-13.52v-15c22.66,0,34.44,8.76,44.83,16.48,9.76,7.25,18.18,13.52,35.88,13.52s26.12-6.27,35.88-13.52c10.39-7.73,22.17-16.48,44.83-16.48s34.44,8.76,44.83,16.48c9.76,7.25,18.18,13.52,35.88,13.52s26.12-6.26,35.88-13.52c10.39-7.73,22.17-16.48,44.83-16.48s34.44,8.76,44.83,16.48c9.76,7.25,18.19,13.52,35.88,13.52s26.12-6.27,35.88-13.52c10.39-7.73,22.17-16.48,44.83-16.48v15c-17.7,0-26.12,6.27-35.88,13.52-10.39,7.72-22.17,16.48-44.83,16.48Z"/>
      <path class="cls-1" d="m1855.49,141.71c-22.66,0-34.44-8.76-44.83-16.48-9.76-7.25-18.19-13.52-35.88-13.52s-26.12,6.26-35.88,13.52c-10.39,7.73-22.17,16.48-44.83,16.48s-34.44-8.76-44.83-16.48c-9.76-7.25-18.18-13.52-35.88-13.52s-26.12,6.26-35.88,13.52c-10.39,7.73-22.17,16.48-44.83,16.48s-34.44-8.76-44.83-16.48c-9.76-7.25-18.18-13.52-35.88-13.52v-15c22.66,0,34.44,8.76,44.83,16.48,9.76,7.25,18.18,13.52,35.88,13.52s26.12-6.27,35.88-13.52c10.39-7.73,22.17-16.48,44.83-16.48s34.44,8.76,44.83,16.48c9.76,7.25,18.18,13.52,35.88,13.52s26.12-6.26,35.88-13.52c10.39-7.73,22.17-16.48,44.83-16.48s34.44,8.76,44.83,16.48c9.76,7.25,18.19,13.52,35.88,13.52s26.12-6.27,35.88-13.52c10.39-7.73,22.17-16.48,44.83-16.48v15c-17.7,0-26.12,6.27-35.88,13.52-10.39,7.73-22.17,16.48-44.83,16.48Z"/>
      <path class="cls-1" d="m1855.49,225.93c-22.66,0-34.44-8.76-44.83-16.48-9.76-7.25-18.19-13.52-35.88-13.52s-26.12,6.26-35.88,13.52c-10.39,7.73-22.17,16.48-44.83,16.48s-34.44-8.76-44.83-16.48c-9.76-7.25-18.18-13.52-35.88-13.52s-26.12,6.26-35.88,13.52c-10.39,7.73-22.17,16.48-44.83,16.48s-34.44-8.76-44.83-16.48c-9.76-7.25-18.18-13.52-35.88-13.52v-15c22.66,0,34.44,8.76,44.83,16.48,9.76,7.25,18.18,13.52,35.88,13.52s26.12-6.27,35.88-13.52c10.39-7.73,22.17-16.48,44.83-16.48s34.44,8.76,44.83,16.48c9.76,7.25,18.18,13.52,35.88,13.52s26.12-6.26,35.88-13.52c10.39-7.73,22.17-16.48,44.83-16.48s34.44,8.76,44.83,16.48c9.76,7.25,18.19,13.52,35.88,13.52s26.12-6.27,35.88-13.52c10.39-7.73,22.17-16.48,44.83-16.48v15c-17.7,0-26.12,6.27-35.88,13.52-10.39,7.73-22.17,16.48-44.83,16.48Z"/>
    </g>
  </g>
  <g>
    <g>
      <path class="cls-1" d="m2339.4,57.72c-22.66,0-34.44-8.76-44.83-16.48-9.76-7.25-18.19-13.52-35.88-13.52s-26.12,6.26-35.88,13.52c-10.39,7.72-22.17,16.48-44.83,16.48s-34.44-8.76-44.83-16.48c-9.76-7.25-18.18-13.52-35.88-13.52s-26.12,6.26-35.88,13.52c-10.39,7.72-22.17,16.48-44.83,16.48s-34.44-8.76-44.83-16.48c-9.76-7.25-18.18-13.52-35.88-13.52v-15c22.66,0,34.44,8.76,44.83,16.48,9.76,7.25,18.18,13.52,35.88,13.52s26.12-6.27,35.88-13.52c10.39-7.73,22.17-16.48,44.83-16.48s34.44,8.76,44.83,16.48c9.76,7.25,18.18,13.52,35.88,13.52s26.12-6.26,35.88-13.52c10.39-7.73,22.17-16.48,44.83-16.48s34.44,8.76,44.83,16.48c9.76,7.25,18.19,13.52,35.88,13.52s26.12-6.27,35.88-13.52c10.39-7.73,22.17-16.48,44.83-16.48v15c-17.7,0-26.12,6.27-35.88,13.52-10.39,7.72-22.17,16.48-44.83,16.48Z"/>
      <path class="cls-1" d="m2339.4,141.94c-22.66,0-34.44-8.76-44.83-16.48-9.76-7.25-18.19-13.52-35.88-13.52s-26.12,6.26-35.88,13.52c-10.39,7.73-22.17,16.48-44.83,16.48s-34.44-8.76-44.83-16.48c-9.76-7.25-18.18-13.52-35.88-13.52s-26.12,6.26-35.88,13.52c-10.39,7.73-22.17,16.48-44.83,16.48s-34.44-8.76-44.83-16.48c-9.76-7.25-18.18-13.52-35.88-13.52v-15c22.66,0,34.44,8.76,44.83,16.48,9.76,7.25,18.18,13.52,35.88,13.52s26.12-6.27,35.88-13.52c10.39-7.73,22.17-16.48,44.83-16.48s34.44,8.76,44.83,16.48c9.76,7.25,18.18,13.52,35.88,13.52s26.12-6.26,35.88-13.52c10.39-7.73,22.17-16.48,44.83-16.48s34.44,8.76,44.83,16.48c9.76,7.25,18.19,13.52,35.88,13.52s26.12-6.27,35.88-13.52c10.39-7.73,22.17-16.48,44.83-16.48v15c-17.7,0-26.12,6.27-35.88,13.52-10.39,7.73-22.17,16.48-44.83,16.48Z"/>
      <path class="cls-1" d="m2339.4,226.16c-22.66,0-34.44-8.76-44.83-16.48-9.76-7.25-18.19-13.52-35.88-13.52s-26.12,6.26-35.88,13.52c-10.39,7.73-22.17,16.48-44.83,16.48s-34.44-8.76-44.83-16.48c-9.76-7.25-18.18-13.52-35.88-13.52s-26.12,6.26-35.88,13.52c-10.39,7.73-22.17,16.48-44.83,16.48s-34.44-8.76-44.83-16.48c-9.76-7.25-18.18-13.52-35.88-13.52v-15c22.66,0,34.44,8.76,44.83,16.48,9.76,7.25,18.18,13.52,35.88,13.52s26.12-6.27,35.88-13.52c10.39-7.73,22.17-16.48,44.83-16.48s34.44,8.76,44.83,16.48c9.76,7.25,18.18,13.52,35.88,13.52s26.12-6.26,35.88-13.52c10.39-7.73,22.17-16.48,44.83-16.48s34.44,8.76,44.83,16.48c9.76,7.25,18.19,13.52,35.88,13.52s26.12-6.27,35.88-13.52c10.39-7.73,22.17-16.48,44.83-16.48v15c-17.7,0-26.12,6.27-35.88,13.52-10.39,7.73-22.17,16.48-44.83,16.48Z"/>
    </g>
    <g>
      <path class="cls-1" d="m2823.26,57.86c-22.66,0-34.44-8.76-44.83-16.48-9.76-7.25-18.19-13.52-35.88-13.52s-26.12,6.26-35.88,13.52c-10.39,7.72-22.17,16.48-44.83,16.48s-34.44-8.76-44.83-16.48c-9.76-7.25-18.18-13.52-35.88-13.52s-26.12,6.26-35.88,13.52c-10.39,7.72-22.17,16.48-44.83,16.48s-34.44-8.76-44.83-16.48c-9.76-7.25-18.18-13.52-35.88-13.52v-15c22.66,0,34.44,8.76,44.83,16.48,9.76,7.25,18.18,13.52,35.88,13.52s26.12-6.27,35.88-13.52c10.39-7.73,22.17-16.48,44.83-16.48s34.44,8.76,44.83,16.48c9.76,7.25,18.18,13.52,35.88,13.52s26.12-6.26,35.88-13.52c10.39-7.73,22.17-16.48,44.83-16.48s34.44,8.76,44.83,16.48c9.76,7.25,18.19,13.52,35.88,13.52s26.12-6.27,35.88-13.52c10.39-7.73,22.17-16.48,44.83-16.48v15c-17.7,0-26.12,6.27-35.88,13.52-10.39,7.72-22.17,16.48-44.83,16.48Z"/>
      <path class="cls-1" d="m2823.26,142.08c-22.66,0-34.44-8.76-44.83-16.48-9.76-7.25-18.19-13.52-35.88-13.52s-26.12,6.26-35.88,13.52c-10.39,7.73-22.17,16.48-44.83,16.48s-34.44-8.76-44.83-16.48c-9.76-7.25-18.18-13.52-35.88-13.52s-26.12,6.26-35.88,13.52c-10.39,7.73-22.17,16.48-44.83,16.48s-34.44-8.76-44.83-16.48c-9.76-7.25-18.18-13.52-35.88-13.52v-15c22.66,0,34.44,8.76,44.83,16.48,9.76,7.25,18.18,13.52,35.88,13.52s26.12-6.27,35.88-13.52c10.39-7.73,22.17-16.48,44.83-16.48s34.44,8.76,44.83,16.48c9.76,7.25,18.18,13.52,35.88,13.52s26.12-6.26,35.88-13.52c10.39-7.73,22.17-16.48,44.83-16.48s34.44,8.76,44.83,16.48c9.76,7.25,18.19,13.52,35.88,13.52s26.12-6.27,35.88-13.52c10.39-7.73,22.17-16.48,44.83-16.48v15c-17.7,0-26.12,6.27-35.88,13.52-10.39,7.73-22.17,16.48-44.83,16.48Z"/>
      <path class="cls-1" d="m2823.26,226.3c-22.66,0-34.44-8.76-44.83-16.48-9.76-7.25-18.19-13.52-35.88-13.52s-26.12,6.26-35.88,13.52c-10.39,7.73-22.17,16.48-44.83,16.48s-34.44-8.76-44.83-16.48c-9.76-7.25-18.18-13.52-35.88-13.52s-26.12,6.26-35.88,13.52c-10.39,7.73-22.17,16.48-44.83,16.48s-34.44-8.76-44.83-16.48c-9.76-7.25-18.18-13.52-35.88-13.52v-15c22.66,0,34.44,8.76,44.83,16.48,9.76,7.25,18.18,13.52,35.88,13.52s26.12-6.27,35.88-13.52c10.39-7.73,22.17-16.48,44.83-16.48s34.44,8.76,44.83,16.48c9.76,7.25,18.18,13.52,35.88,13.52s26.12-6.26,35.88-13.52c10.39-7.73,22.17-16.48,44.83-16.48s34.44,8.76,44.83,16.48c9.76,7.25,18.19,13.52,35.88,13.52s26.12-6.27,35.88-13.52c10.39-7.73,22.17-16.48,44.83-16.48v15c-17.7,0-26.12,6.27-35.88,13.52-10.39,7.73-22.17,16.48-44.83,16.48Z"/>
    </g>
  </g>
</svg>